<?xml version="1.0" standalone="no"?>
<!DOCTYPE svg PUBLIC "-//W3C//DTD SVG 20010904//EN"
 "http://www.w3.org/TR/2001/REC-SVG-20010904/DTD/svg10.dtd">
<svg version="1.0" xmlns="http://www.w3.org/2000/svg"
 width="510.000000pt" height="489.000000pt" viewBox="0 0 510.000000 489.000000"
 preserveAspectRatio="xMidYMid meet">
<metadata>
Created by potrace 1.16, written by Peter Selinger 2001-2019
</metadata>
<g transform="translate(0.000000,489.000000) scale(0.100000,-0.100000)"
fill="#000000" stroke="none">
<path d="M2129 1315 c-11 -25 -29 -50 -40 -56 -11 -6 -18 -17 -15 -24 2 -7 0
-28 -7 -45 -10 -25 -9 -33 3 -41 26 -17 83 1 118 37 33 34 52 43 52 25 0 -6
-4 -13 -10 -16 -5 -3 -10 -17 -10 -29 0 -22 4 -23 69 -24 46 0 76 5 88 14 16
13 15 14 -17 13 -53 -2 -56 0 -32 17 12 8 22 24 22 35 0 29 -35 24 -59 -8 -34
-46 -43 -55 -48 -49 -3 2 2 19 10 36 15 28 14 31 -3 42 -14 9 -16 17 -9 35 24
64 1 52 -40 -21 -32 -57 -63 -86 -93 -86 -30 0 1 59 42 82 33 17 34 19 13 24
-21 6 -22 8 -8 35 18 33 19 49 4 49 -5 0 -19 -20 -30 -45z"/>
<path d="M1711 1258 c-5 -13 -26 -40 -45 -60 -47 -47 -30 -59 17 -13 43 41 51
44 35 11 -19 -43 -4 -60 45 -52 23 4 53 14 65 22 13 9 26 14 28 11 6 -5 -39
-57 -50 -57 -15 0 -69 -65 -87 -105 -24 -53 -24 -75 1 -75 29 0 90 68 121 136
16 34 40 71 54 82 29 23 32 32 10 32 -17 0 -20 25 -5 35 12 7 14 55 3 54 -5 0
-21 -19 -38 -41 -33 -45 -60 -66 -71 -55 -4 3 0 17 9 31 15 23 13 36 -5 36 -5
0 -18 -20 -29 -45 -25 -56 -33 -57 -24 -5 11 66 -14 108 -34 58z"/>
<path d="M2595 1243 c-21 -4 -65 -63 -65 -88 0 -26 27 -16 40 15 7 16 18 34
26 41 11 9 13 4 11 -27 l-2 -39 95 0 c69 -1 100 3 113 14 13 11 20 12 29 3 30
-30 101 12 96 56 -4 33 -28 42 -28 10 0 -27 -17 -48 -38 -48 -9 0 -11 7 -7 20
4 14 2 20 -8 20 -8 0 -22 -9 -32 -20 -23 -26 -39 -26 -23 0 18 28 1 37 -21 11
-11 -13 -21 -26 -23 -30 -4 -11 -68 -22 -68 -13 0 4 9 15 20 25 11 9 20 24 20
32 0 8 -9 15 -20 15 -23 0 -60 -33 -60 -55 0 -8 -5 -15 -10 -15 -7 0 -8 13 -5
34 7 36 -3 45 -40 39z"/>
</g>
</svg>
