<svg width="42" height="19" version="1.1" xmlns="http://www.w3.org/2000/svg" x="0" y="0" viewBox="0 0 420 190" xml:space="preserve" enable-background="new 0 0 420 170"><path d="m8.6 125 .3-3.3c.8-8.3 4-15.3 10-21 4.5-4.4 9.8-7.3 15.5-9.5 7-2.7 14.3-4.1 21.7-5 7.3-.8 14.7-.8 22-.8h.6l.2-.2c0-4.7.2-9.4-1-14-1.5-6.1-5.3-9.7-11.4-10.8-2.6-.5-5.2-.8-7.8-.8H24.9c-2 0-3.8-.3-5.2-1.7-3.2-2.9-2-8.6 2.2-10 1-.3 2.2-.4 3.3-.4h32.7a53 53 0 0 1 15.7 2.1A23 23 0 0 1 90.3 68a53 53 0 0 1 1 11.4v68.4c0 1.5 0 3-.2 4.5-.5 3.4-2.4 4.9-5.7 4.8-3-.1-4.5-1.3-5.2-4.2a14 14 0 0 1-.2-2l-.2-3.1-2.2 1.9a35 35 0 0 1-16.3 7.5c-2.5.5-5.1.7-7.7 1l-.5.2h-8.7l-1-.2c-5-.3-9.8-1-14.6-2.6a29 29 0 0 1-13.4-8.7A29 29 0 0 1 9 130.5l-.4-4V125zM79 96.7h-.6c-8.2 0-16.5.4-24.6 1.8-6 1-11.7 2.6-17 5.4-8.6 4.4-14 11-14.7 21-.3 4.4.4 8.6 3 12.3 2.8 4 6.8 6.4 11.4 8 4.8 1.6 9.8 2 14.8 1.8 4.7-.2 9.3-.8 13.7-2.3 9.2-3.2 14-9.9 14-19.6V96.8zM114.4 158.3l-1.2-.4a5.7 5.7 0 0 1-3.5-7.7c.5-1.2 1.1-2.3 1.9-3.3l31.6-42.5c.3-.5.4-.8 0-1.4l-29.9-40-2.9-4a7.1 7.1 0 0 1-1.3-5.3c.7-3.8 5-5.8 8.5-4 1.4.8 2.5 2 3.4 3.3l27.8 37.8 2.2 3 1.7-2.3 28.1-38.6c.7-.9 1.5-1.7 2.4-2.4 2.2-1.8 4.9-2 7-.5 2.2 1.5 3 4 2.2 6.7-.4 1.3-1 2.5-1.8 3.5a13047 13047 0 0 1-31.7 42.6c-.5.7-.4 1 0 1.8a25936.2 25936.2 0 0 1 33.1 45c1.7 3.5.5 6.7-3.1 8.2l-1.3.5h-2c-1.7-.6-3-1.8-4-3.3L155 119l-4-5.5c-.3.2-.5.4-.6.7l-28.6 39.5c-1.6 2.1-3.3 4-6 4.7h-1.5zM406 151.6c-.2 1-.4 2-.8 3a4.7 4.7 0 0 1-5.8 2.8 4.6 4.6 0 0 1-3-2.8c-.7-1.5-1-3-1-4.7V15c0-1.7.3-3.4 1.1-5a4.5 4.5 0 0 1 4.3-2.6c2 0 3.4.9 4.2 2.7.5 1 .7 2.1 1 3.2v138.4zM258.3 101l-.2 6.7c.1 5.3.8 10.4 2.5 15.4a29.5 29.5 0 0 0 22.6 20.4c4 1 8 1.4 12.1 1.4h31.8c1.5 0 3 .1 4.2.9 2.2 1.2 3.2 3.6 2.8 6.3-.5 2.5-2.1 4.2-4.7 4.7l-2 .2h-33.7c-8.2-.1-16.2-1.4-23.7-5a39.7 39.7 0 0 1-20-21.2 63.3 63.3 0 0 1-4.5-17.2c-.7-6-.9-11.9-.4-17.8 1-12.2 4.4-23.5 12-33.2 6.9-8.7 16-13.8 26.8-15.7a48.3 48.3 0 0 1 21.2.8A38.2 38.2 0 0 1 330.2 69a52.7 52.7 0 0 1 5.1 25.8c-.2 4-2.4 6-6.4 6h-70.6zm65.5-10.5v-.3a50 50 0 0 0-5-17 28 28 0 0 0-14.5-13.6 33 33 0 0 0-16.8-1.9 29 29 0 0 0-19.7 11c-4 4.9-6.3 10.7-7.7 16.9l-.9 5h64.6zM369.2 82.5v67c0 1.8-.2 3.6-1 5.4a4.7 4.7 0 0 1-5.7 2.6 4.5 4.5 0 0 1-3-2.6 11 11 0 0 1-1-4.9V22.7l.1-8c0-1.5.4-3 .9-4.5.7-1.9 2.2-2.9 4.3-3 2 0 3.5 1.1 4.4 3 .8 1.7 1 3.5 1 5.4v66.8zM213 102.2v-47c0-1.6.3-3.2.7-4.6.8-2.9 3-4.2 5.7-3.7 1.5.3 2.5 1.3 3.2 2.6.7 1.4 1 3 1 4.5v96.5c0 2-.4 3.9-1.6 5.5a4.7 4.7 0 0 1-7.3 0 8.5 8.5 0 0 1-1.5-4.5l-.1-2.3v-47z"/><path d="M227.3 24c0 4.4-3 8.3-7 9.1a8.9 8.9 0 0 1-10.3-5.9 9.6 9.6 0 0 1 4.4-11.6c5-2.6 11.3.4 12.6 6l.3 2.4z" fill="#cc3d3d"/></svg>
