<svg width="146" height="31" xmlns="http://www.w3.org/2000/svg" x="0" y="0" viewBox="0 0 703.5 156.2" xml:space="preserve" enable-background="new 0 0 703.5 156.2"><style>.prefix__st0{fill:#6fc5a2}.prefix__st1{fill:#3b3e3f}</style><g id="prefix__Logo_-_4_Color"><path class="prefix__st0" d="M93.2 83.2 93.2 89.1 51.6 89.1 29.8 101 29.8 83.2z"/><path class="prefix__st0" d="M93.2 37.6 29.8 37.6 29.8 31.7 61.5 25.7 93.2 31.7z"/><path class="prefix__st0" d="M29.8 40.6H37.8V80.2H29.8z"/><path class="prefix__st0" d="M43.6 40.6H51.6V80.2H43.6z"/><path class="prefix__st0" d="M57.5 40.6H65.5V80.2H57.5z"/><path class="prefix__st0" d="M71.3 40.6H79.3V80.2H71.3z"/><path class="prefix__st0" d="M85.2 40.6H93.2V80.2H85.2z"/><path class="prefix__st1" d="M117.6 60.5c0-11 8.5-19.7 19.9-19.7 7.7 0 12.5 3.3 15.9 8l-7.7 5.9c-2.2-2.7-4.7-4.4-8.3-4.4-5.3 0-9 4.5-9 10.1 0 5.7 3.7 10.1 9 10.1 3.9 0 6.3-1.8 8.5-4.6l7.9 5.6a19.1 19.1 0 0 1-16.7 8.5 19 19 0 0 1-19.5-19.5zM159.5 62.8V41.6h10.6v21c0 5.5 2.8 8 7 8s7-2.5 7-7.8V41.6h10.6v21c0 12.2-7 17.6-17.7 17.6-10.8-.1-17.5-5.6-17.5-17.4zM203.9 41.6h10.5v28.6h18.3v9.2h-28.8V41.6zM242.9 50.8h-11.3v-9.2h33.2v9.2h-11.3v28.6H243V50.8zM270.6 62.8V41.6h10.6v21c0 5.5 2.8 8 7 8s7-2.5 7-7.8V41.6h10.6v21c0 12.2-7 17.6-17.7 17.6s-17.5-5.6-17.5-17.4zM315 41.6h17.9c5.8 0 9.8 1.5 12.3 4.1a12 12 0 0 1 3.3 9 12 12 0 0 1-7.8 11.6l9 13.2h-12.1L330 67.9h-4.6v11.4H315V41.6zm17.3 18.1c3.6 0 5.6-1.7 5.6-4.6 0-3-2.2-4.5-5.7-4.5h-6.9v9.1h7zM356.4 41.6h30.4v8.9h-20v5.7h18.1v8.3h-18.1v6H387v8.9h-30.7V41.6zM394 60.5A19 19 0 0 1 413.1 41a19 19 0 0 1 14.6 6.1l-2.8 3c-3.2-3-6.8-5.2-11.9-5.2-8.4 0-14.6 6.8-14.6 15.6 0 8.7 6.3 15.6 14.6 15.6 5.2 0 8.6-2 12.2-5.5l2.8 3c-3.9 4-8.3 6.4-15.1 6.4A18.8 18.8 0 0 1 394 60.5zM434.3 60.5c0-10.4 7.8-19.5 19.3-19.5a19 19 0 0 1 19.2 19.5c0 10.4-7.8 19.5-19.3 19.5a19 19 0 0 1-19.2-19.5zm34.1 0c0-8.6-6.3-15.6-14.9-15.6-8.6 0-14.8 6.9-14.8 15.6 0 8.6 6.3 15.6 14.9 15.6 8.7 0 14.8-6.9 14.8-15.6zM483.7 41.6h4l23.8 30.3V41.6h4.2v37.8h-3.4l-24.4-31v31h-4.2V41.6zM528.5 41.6h4l23.8 30.3V41.6h4.2v37.8H557l-24.4-31v31h-4.2V41.6zM573.2 41.6h27.3v3.9h-23.1v12.9H598v3.9h-20.6v13.2h23.3v3.9h-27.6V41.6zM607.9 60.5A19 19 0 0 1 627 41a19 19 0 0 1 14.6 6.1l-2.8 3c-3.2-3-6.8-5.2-11.9-5.2-8.4 0-14.6 6.8-14.6 15.6 0 8.7 6.3 15.6 14.6 15.6 5.2 0 8.6-2 12.2-5.5l2.8 3c-3.9 4-8.3 6.4-15.1 6.4a18.8 18.8 0 0 1-18.9-19.5zM661.6 45.5h-12.7v-3.9h29.7v3.9h-12.7v33.9h-4.3V45.5zM272.8 107.8h2.4v3.3c1.2-1.9 2.9-3.6 5.6-3.6 3.5 0 6.8 3 6.8 8.7v.3c0 5.7-3.4 8.7-6.8 8.7-2.7 0-4.4-1.6-5.6-3.5v8.1h-2.4v-22zm12.4 8.7v-.3c0-4.2-2.2-6.6-4.9-6.6s-5.2 2.6-5.2 6.6v.3c0 4 2.5 6.6 5.2 6.6s4.9-2.4 4.9-6.6zM290.5 119.9v-.1c0-3.5 2.5-5.5 6.3-5.5 1.8 0 3.1.3 4.4.7v-1c0-2.8-1.6-4.2-4.4-4.2-1.7 0-3.2.5-4.4 1.2l-.8-1.9c1.6-.8 3.3-1.4 5.4-1.4 2.1 0 3.7.6 4.8 1.7 1.1 1.1 1.6 2.6 1.6 4.6v11h-2.3v-2.5a6 6 0 0 1-5.2 2.9c-2.8-.1-5.4-2.1-5.4-5.5zm10.7-.9v-2.1a12 12 0 0 0-4.1-.7c-2.7 0-4.2 1.4-4.2 3.6v.1c0 2.1 1.6 3.5 3.6 3.5 2.6-.1 4.7-1.9 4.7-4.4zM308.1 107.8h2.4v3.8c1-2.4 3.1-4.1 5.9-4v2.6h-.1c-3.2 0-5.8 2.2-5.8 6.6v8.2h-2.4v-17.2zM320.4 120.9v-11h-2.1v-2.1h2.1v-5h2.4v5h4.5v2.1h-4.5v10.6c0 1.8 1 2.5 2.5 2.5a5 5 0 0 0 2-.5v2c-.8.4-1.6.6-2.6.6-2.4.1-4.3-1.1-4.3-4.2zM338.7 116.5v-.2c0-5 3.2-8.8 7.6-8.8 4.4 0 7.6 3.8 7.6 8.8v.2c0 5-3.2 8.8-7.6 8.8-4.4 0-7.6-3.8-7.6-8.8zm12.8 0v-.2c0-3.8-2.3-6.7-5.2-6.7-3 0-5.2 2.9-5.2 6.7v.2c0 3.8 2.3 6.7 5.2 6.7 3-.1 5.2-3 5.2-6.7zM358.7 109.9h-2.1v-2.1h2.1v-1.6c0-1.8.5-3.1 1.3-4 .8-.8 1.9-1.2 3.3-1.2a8 8 0 0 1 2.3.3v2.1l-1.9-.3c-1.7 0-2.6 1.1-2.6 3.2v1.4h4.5v2.1h-4.4v15h-2.4v-14.9zM377.6 120.9v-11h-2.1v-2.1h2.1v-5h2.4v5h4.5v2.1H380v10.6c0 1.8 1 2.5 2.5 2.5a5 5 0 0 0 2-.5v2c-.8.4-1.6.6-2.6.6-2.5.1-4.3-1.1-4.3-4.2zM388.3 101.2h2.4v9.4c1-1.7 2.5-3.1 5.1-3.1 3.5 0 5.6 2.4 5.6 6.2v11.2H399v-10.6c0-3.1-1.4-4.8-3.9-4.8s-4.3 2-4.3 4.9v10.4h-2.4v-23.6zM405 116.5v-.2c0-5.2 3.1-8.9 7.1-8.9 4.3 0 6.9 3.7 6.9 8.8v1h-11.5c.3 3.8 2.6 5.9 5.3 5.9 1.9 0 3.3-.8 4.4-2l1.3 1.5a7.6 7.6 0 0 1-5.9 2.6c-4.2.1-7.6-3.3-7.6-8.7zm11.6-1.1c-.2-3.3-1.7-5.9-4.5-5.9-2.5 0-4.4 2.3-4.7 5.9h9.2zM438.7 101.8h2.4l8.8 23.1h-2.6l-2.2-6h-10.4l-2.2 6H430l8.7-23.1zm5.5 14.8-4.3-11.7-4.4 11.7h8.7zM459.1 114.5l4.2-6.7h2.6l-5.5 8.3 5.7 8.8h-2.7l-4.4-7.1-4.4 7.1H452l5.7-8.7-5.4-8.4h2.7l4.1 6.7zM469.8 101.5h2.6v2.8h-2.6v-2.8zm.1 6.3h2.4v17.1h-2.4v-17.1zM476.4 116.5v-.2c0-5.2 3.1-8.9 7.1-8.9 4.3 0 6.9 3.7 6.9 8.8v1h-11.5c.3 3.8 2.6 5.9 5.3 5.9 1.9 0 3.3-.8 4.4-2l1.3 1.5a7.6 7.6 0 0 1-5.9 2.6c-4.2.1-7.6-3.3-7.6-8.7zm11.6-1.1c-.2-3.3-1.7-5.9-4.5-5.9-2.5 0-4.4 2.3-4.7 5.9h9.2zM494.4 101.2h2.4v23.7h-2.4v-23.7zM502 101.2h2.4v23.7H502v-23.7zM517.4 113.5v-.2c0-6.7 4.2-11.7 10.3-11.7 3 0 5 .9 7 2.5l-1.5 2a8.1 8.1 0 0 0-5.6-2.1c-4.4 0-7.6 3.9-7.6 9.4v.2c0 5.8 3.1 9.5 7.9 9.5 2 0 3.8-.7 5-1.6V115H527v-2.2h8.1v9.9a12.3 12.3 0 0 1-7.4 2.7c-6.3-.2-10.3-4.9-10.3-11.9zM539.9 107.8h2.4v3.8c1-2.4 3.1-4.1 5.9-4v2.6h-.2c-3.2 0-5.8 2.2-5.8 6.6v8.2h-2.4v-17.2zM549.8 116.5v-.2c0-5 3.2-8.8 7.6-8.8 4.4 0 7.6 3.8 7.6 8.8v.2c0 5-3.2 8.8-7.6 8.8s-7.6-3.8-7.6-8.8zm12.8 0v-.2c0-3.8-2.3-6.7-5.2-6.7-3 0-5.2 2.9-5.2 6.7v.2c0 3.8 2.3 6.7 5.2 6.7 3-.1 5.2-3 5.2-6.7zM568.7 119v-11.2h2.4v10.6c0 3.1 1.4 4.8 3.9 4.8s4.3-1.9 4.3-4.9v-10.5h2.4v17.1h-2.4v-2.8c-1 1.7-2.5 3.1-5.1 3.1-3.4 0-5.5-2.4-5.5-6.2zM586.6 107.8h2.4v3.3c1.2-1.9 2.9-3.6 5.6-3.6 3.5 0 6.8 3 6.8 8.7v.3c0 5.7-3.4 8.7-6.8 8.7-2.7 0-4.4-1.6-5.6-3.5v8.1h-2.4v-22zm12.3 8.7v-.3c0-4.2-2.2-6.6-4.9-6.6s-5.2 2.6-5.2 6.6v.3c0 4 2.5 6.6 5.2 6.6 2.8 0 4.9-2.4 4.9-6.6z"/><path d="M621.1 123c3.8 0 6.9-3.1 6.9-6.8a6.9 6.9 0 0 0-13.8 0c0 3.7 3.1 6.8 6.9 6.8" fill="#60123f"/><path d="M642.7 123c3.8 0 6.9-3.1 6.9-6.8a6.9 6.9 0 0 0-13.8 0c0 3.7 3.1 6.8 6.9 6.8" fill="#cd3d3d"/><path d="M663.8 123c3.8 0 6.9-3.1 6.9-6.8a6.9 6.9 0 0 0-13.8 0c0 3.7 3.1 6.8 6.9 6.8" fill="#088387"/></g></svg>
