<svg width="100" height="20" xmlns="http://www.w3.org/2000/svg" viewBox="0 0 664 108" xmlns:xlink="http://www.w3.org/1999/xlink"><defs><path fill="none" d="M30.8 0c40 0 45.3 1 54.9 9.3 6.2 5.5 8.1 10.3 8.1 20.7 0 7.3-.4 10-2.2 13.2-6.4 12-19.9 17.8-41 17.8H40.3v19c0 11 .1 17 1 20.5.8 3.4 2.2 4.3 5.2 5.7 1 .4 2 .9 2.2 1.2a.9.9 0 0 1 0 .4.8.8 0 0 1 0 .4l-.5.3-1.5.3c-2.7.2-9.1.2-21.9.1a479 479 0 0 1-20.7-.2c-1.5-.1-2.5-.3-2.8-.6a.8.8 0 0 1-.2-.6c0-.2.2-.4.3-.4l1-.6c1.6-.6 3.4-2 3.9-3.1.7-1.2 1-17 1-48.7 0-26 .1-38.3-.7-44.5-.3-3-.9-4.5-1.8-5.5-.8-1-2-1.4-3.7-2.3L.2 2a1 1 0 0 1-.2-.6L.3.8C.7.5 2 .3 4 .2c4-.2 12-.2 27-.2zM4 1.2c-1.3 0-2 .2-2.5.3h.2c1.6 1 3 1.4 4 2.6 1 1 1.6 2.8 2 6 .8 6.3.7 18.6.7 44.6 0 31.7-.4 47.7-1.1 49.1a10 10 0 0 1-4.5 3.7 5 5 0 0 0-.2 0l1.7.2c3 .2 9.3.2 20.6.2l21.8-.1.8-.1-1.3-.6c-3-1.4-4.9-2.7-5.8-6.4-.9-3.6-1-9.6-1-20.7V60h11.3c21 0 34-5.5 40-17.2 1.9-3.1 2.2-5.5 2.2-12.8 0-10.2-1.7-14.6-7.8-20-9.3-8.2-14.3-9-54.2-9C16 1 8 1 4 1.2zm52 6.3c3.4 4 4.4 9.2 4.4 22.5 0 13.9-1 18.5-5 23-2.5 2.8-3.9 3.4-9.3 3.8l-6.7.4V3.8h.6l6.6.4c5.7.4 7.2 1 9.3 3.3zm-9.5-2.3-6-.4v51.4l5.5-.4c5.3-.4 6.4-.8 8.7-3.4 3.8-4.3 4.7-8.6 4.7-22.4 0-13.2-.9-18-4.2-21.9-2-2.2-3-2.5-8.7-2.9zM650.6.1l13.7-.1v87h-6l-.2-40.3-.3-39.2h-12l-.3 39.2-.2 40.3h-6V39.1l-4-1A22.4 22.4 0 0 1 621.7 27a24.4 24.4 0 0 1 0-16c1.6-4 6.9-8.3 11.9-9.8 2-.6 9.6-1 17-1.1zm-16.6 2c-4.8 1.4-9.8 5.4-11.3 9.2a22.6 22.6 0 0 0 0 15.3c1.8 4.5 7.7 9.3 12.8 10.5l4.5 1.1.3.1V86h4l.2-39.3.3-39.7v-.5h14l.3 40.2.2 39.3h4V1l-12.7.1c-7.2 0-14.8.5-16.6 1zM162.4 52.6a15 15 0 0 1-5 7.6c-2.4 1.8-5.3 2.9-8.2 2.9-4.3 0-8-1.4-10.7-3.9-2.6-2.4-4.2-5.9-4.2-9.9 0-3.4.9-6.3 2.5-8.5 1.7-2.3 4.2-4 7.6-5.2a14 14 0 0 1 14.1 3.2c3.6 3.3 5.5 8.6 4 13.8zm-4.6-13.1a12.6 12.6 0 0 0-13.1-3 14 14 0 0 0-7 4.9 12.9 12.9 0 0 0-2.4 7.9c0 3.8 1.4 7 4 9.2 2.4 2.3 5.8 3.6 10 3.6 2.6 0 5.2-1 7.4-2.7 2.2-1.8 4-4.2 4.8-7 1.5-5-.3-9.7-3.7-13zm87.8 33.1c0 11.2-4.8 21-12.8 27.6-8 6.7-19 10.4-31.4 9.7a38.6 38.6 0 0 1-36.5-28.6c-3-10.2-.6-21 5.5-29.5 6-8.5 15.7-14.9 27-16.6 13-1.9 25.2 1.4 34 8.2a36.7 36.7 0 0 1 14.2 29.2zm-14.9-28.4a43.1 43.1 0 0 0-33-8 39.3 39.3 0 0 0-26.5 16.2c-6 8.4-8.3 18.7-5.4 28.7a37.2 37.2 0 0 0 13 19.5 40.7 40.7 0 0 0 22.7 8.3 43 43 0 0 0 30.7-9.4c7.8-6.6 12.5-16 12.4-26.9 0-11.8-5.3-21.7-13.9-28.4zm-20.7-6c1 .5 2.9 3 3.9 5.4 1.5 3.7 2 8 2.2 25.7.4 24.5-.5 31.3-5 35.9-2.4 2.4-5.4 3.3-8.2 2.7-2.7-.7-5.3-2.9-7.3-6.4-1.5-2.9-1.8-6.5-1.8-28.9 0-24.4.2-25.8 2.3-30a15 15 0 0 1 3.7-4.8c2.3-.9 8.2-.7 10.2.4zm-9.8.6c-.6.2-2 2.2-3.2 4.3-2.1 4-2.2 5.1-2.2 29.5 0 22.4.2 25.8 1.7 28.5 1.8 3.3 4.2 5.2 6.7 5.8 2.5.6 5-.1 7.3-2.4 4.2-4.3 5-10.7 4.6-35.2-.3-17.7-.6-21.8-2.1-25.3-1-2.3-2.6-4.5-3.5-5-1.7-1-7.2-1.1-9.3-.2zm126.8.8c5.3 5.6 5.7 8.6 6.1 37.7l.4 27 2.3 2 3.8 2.8h-39.2l.8-.8 1.9-2.1c1.6-1.8 1.7-4 2-26 .4-26.7 0-31.6-2.7-34.3-1.6-1.6-3.7-2.1-6.2-1.7-2.5.4-5.2 1.8-7.7 4-2.3 1.9-2.2 2-2.2 28.4 0 25.5 0 26.6 2 29.1l2.6 3.4h-38.1l.8-.8 2.4-2.6 2.3-2.2V77.5c0-13.9 0-21.6-.8-26-.6-4.4-1.7-5.4-3.8-6-.6-.2-1.2-.4-1.6-.7-.4-.3-.8-.7-.8-1.1 0-.2.2-.4.3-.5l.3-.2 1-.3a60.5 60.5 0 0 1 3.2-1 254 254 0 0 1 10.4-2.5l17-3.9 1.4-.2c.4 0 .9.4 1 .8.4.7.4 2.1.4 4.6v4.3l2.6-1.6a54.1 54.1 0 0 1 17.8-8.2c7.8-1.3 16.7.7 20.3 4.5zM306.8 36c-4.4.8-11.1 3.8-17.4 8l-3.3 2.1-.8.5v-6.1c0-2.4 0-3.6-.2-4.2-.1-.2-.1-.1-.3-.2l-1 .2-17 3.9a252 252 0 0 0-14.3 3.7h.2c.3.3.8.5 1.3.6 2.3.8 3.8 2.2 4.5 6.8.7 4.5.8 12.3.8 26.2v26.3l-2.6 2.6-1.6 1.6H289l-1.4-1.8c-2-2.7-2.2-4.2-2.2-29.7 0-26.4.1-26.9 2.5-29 2.6-2.5 5.6-4 8.2-4.4a8 8 0 0 1 7 2c3.1 3 3.5 8.3 3.1 35-.3 22.1-.5 24.6-2.3 26.6l-1.1 1.3h34l-1.5-1.1-2.5-2-.2-.2-.4-27.5c-.4-29-.7-31.7-5.8-37-3.4-3.7-11.8-5.5-19.5-4.2zm116.3 21c2.3 5 2.7 7.3 2.7 15.5 0 11.5-2 16.6-9.1 24.2a41 41 0 0 1-31.6 13.3 41 41 0 0 1-37.4-22.3c-2.5-5-2.9-6.6-2.9-15.2 0-8.4.4-10.3 2.9-15.4a41.5 41.5 0 0 1 30.7-22c9.4-1.4 18.8.2 26.6 4a38.7 38.7 0 0 1 18 18zm-18.5-17a44.1 44.1 0 0 0-26-3.9 40 40 0 0 0-30 21.4c-2.5 5-2.8 6.6-2.8 15 0 8.5.3 10 2.8 14.8A39.6 39.6 0 0 0 385 109c12.8 0 22.6-4.1 30.9-13 7-7.5 8.8-12.2 8.8-23.5 0-8.1-.3-10.1-2.6-15A37.3 37.3 0 0 0 404.6 40zm-12.5-.2c4.2 5.3 4.7 9.2 4.7 32.2 0 23.8-.8 29.2-5.1 33.5a9 9 0 0 1-6.4 2.6 9 9 0 0 1-6.3-2.6c-4.3-4.3-5.2-9.8-5.2-33s.9-28.6 5.2-33a9.6 9.6 0 0 1 6.8-2.6c2.4 0 4.8 1 6.3 2.9zm-6.3-1.9c-2.3 0-4.5.7-6.1 2.4-4.1 4-4.9 9-4.9 32.2 0 23.2.8 28.2 4.9 32.2a7.8 7.8 0 0 0 11.3 0c4-4 4.8-9 4.8-32.7 0-23-.4-26.5-4.5-31.6a7 7 0 0 0-5.5-2.5zM601 42.5l2.8 4.1.5 28.3c.3 15.5 1 28.5 1.3 29.5.4.8 1.6 1.9 2.8 2.5.2 0 .5.4.6.6l-.3.6-.3.2-2.7.4-14 .2-20 .1 2.8-2.9c1.8-1.7 1.8-3 1.8-30.1 0-27.2 0-28.4-1.8-30.1a6.5 6.5 0 0 0-5.2-1.8c-2.2.1-4.5 1-7 2.5l-4 2.6v26.6c0 26.4.4 29.6 3.2 31.5l.3.3-.2.5-.4.2-1 .2-3.5.3-12.6.2h-19.4l5.7-5.7-.6-53.8-3-2.7c-2-1.7-3-2.7-3.2-3.4v-.7c0-.2.3-.4.5-.5.3-.2.9-.2 1.5-.2 1 0 8.1-1.6 16-3.5a320 320 0 0 1 15.2-3.5c.2 0 .5.1.6.3l.3.4.3 1.1c.3 1 .4 2.3.5 3.7l.3 4 3.8-2.6c5.8-4 10.5-6 16.2-6.8 5-.8 9.6-.5 13.3.7a17 17 0 0 1 9 6.7zm-9.2-5.7a27 27 0 0 0-12.9-.7c-5.5.8-10 2.7-15.8 6.6l-5.2 3.6-.4-5.8a23 23 0 0 0-.7-4.4c-1.1 0-7.6 1.6-15 3.4a202.3 202.3 0 0 1-17.3 3.6 15 15 0 0 0 3 3l3.2 2.8.1.2.6 54.6-4.3 4.3h17a275.4 275.4 0 0 0 16-.5c-2.4-2.3-2.8-7.6-2.8-31.7V48.6l4.5-2.8a16 16 0 0 1 7.4-2.7c2.3-.1 4.5.6 6 2 2 2 2.1 3.7 2.1 30.9s-.1 28.8-2.1 30.9L574 108l17.6-.1c7 0 11.5 0 14-.2a20.6 20.6 0 0 0 1.8-.2 8.7 8.7 0 0 1-2.7-2.7c-.4-1-1-14.4-1.4-29.9l-.5-28-2.6-3.8c-2-3-4.8-5.1-8.4-6.3zM130 35c.3 0 .6 0 .9.2.2.2.4.5.5 1 .3.7.5 2 .6 4.4.2 4.6.2 13.2.2 29.3 0 33.2 0 34.4 1.9 36.1l2.8 2.9H97.4l6.4-5.5.3-21.7c.4-27.4 0-31.5-3.7-35.1-1.8-1.8-2.8-2.9-2.9-3.6 0-.2.1-.5.3-.7l.6-.3 1.7-.2c1.2 0 8-1.5 15.1-3.4 7.2-1.8 13.9-3.3 14.9-3.4zm-14.6 4.4A131.1 131.1 0 0 1 98.6 43c0 .5.8 1.3 2.5 3 3.9 3.9 4.4 8.4 4 35.8l-.3 22.1-4.7 4.1h34.5l-1.1-1.1c-2-2.1-2.2-3.7-2.2-36.9 0-16.1 0-24.7-.2-29.3-.1-2.3-.3-3.5-.5-4.1l-.2-.5h-.2c-1 .1-7.5 1.6-14.7 3.4zM464 35c.3 0 .6 0 .8.2.3.2.5.5.6.9.3.7.5 1.9.6 4 .2 4.2.2 12.1.2 26.8v31.4l2.4 2.3c1.4 1.4 2.6 2 4 2.2 1.6 0 3.3-.5 5.8-1.7 3.2-1.7 4.5-2.2 5.2-5.5.7-3.4.6-9.7.4-22.7l-.3-23.5-3.1-2.8c-1-.8-1.8-1.6-2.3-2.2a6.8 6.8 0 0 1-.7-.8 1.6 1.6 0 0 1-.1-.3v-.7c.4-.2 6.2-1.6 32-7.4l2.7-.6V97l2.4 3.5c1.5 2 2.6 4 2.6 4.4l-.2.5a1.4 1.4 0 0 1-.4.2 4.3 4.3 0 0 1-.8.2l-2.3.1c-1.7 0-8.6.9-15.2 2a368 368 0 0 1-12.8 2 1 1 0 0 1-.5-.2 1.4 1.4 0 0 1-.3-.4l-.2-1c-.2-.7-.3-1.8-.3-2.9l-.1-2.8a6 6 0 0 0-.1-.6l-3.9 2.4a38.3 38.3 0 0 1-21 5.6c-7.1-.2-13.6-2.4-16.7-6.5-3.5-5-4-8.5-4-28.6-.2-11-.7-21.6-1.1-23.6-.6-2-2.3-4.5-4-5.8l-3.8-3.1 1-.2 6.9-1.2c3.6-.6 10.8-2.3 15.7-3.6 5-1.3 9.9-2.4 11-2.4zm-10.6 3.4c-5 1.3-12.2 3-15.9 3.6l-5.7 1 2.1 1.7a15 15 0 0 1 4.3 6.4c.5 2 1 12.8 1.1 23.8.1 20 .5 23.3 4 28 2.7 4 8.9 6 15.9 6 7 .2 14.6-1.5 20.4-5.3a23 23 0 0 1 4.6-2.7l.6.3.1.4.2 1 .1 2.8a15.4 15.4 0 0 0 .4 3.5l12.6-2a159.7 159.7 0 0 1 18-2.2l-2.4-3.6-2.5-3.7V35.9l-1.7.4-31 7 .4.5c.5.6 1.3 1.3 2.3 2.1l3.3 3 .1.2.3 23.9c.2 13 .3 19.4-.4 23-.8 3.6-2.6 4.4-5.7 6-2.6 1.3-4.6 2-6.3 1.9-1.7-.1-3.2-1-4.7-2.5l-2.7-2.6V67c0-14.7 0-22.6-.2-26.7-.1-2.1-.3-3.2-.5-3.8 0-.3-.1-.3-.2-.4h-.2c-1 0-5.7 1-10.7 2.4z" id="reuse-0"/></defs><path d="M1.3 1.5c6.8 3.5 6.5.7 6.5 52.7 0 31.7-.4 47.6-1 48.9a9.2 9.2 0 0 1-4.3 3.4c-2.8 1.3-.3 1.4 22.3 1.4 25.5.1 25.5.1 21.5-1.8-6-2.7-6.5-4.5-6.5-26.6V60h10.8c21 0 34.2-5.7 40.5-17.5 1.8-3.2 2.2-5.7 2.2-13 0-10.3-1.8-14.9-8-20.3C76 .9 70.7 0 30.8 0 1 0-1.4.1 1.3 1.5zm452 36c-4.9 1.3-12 3-15.8 3.6l-6.8 1.2 3 2.4a14 14 0 0 1 4.1 6.1c.5 2 1 12.7 1.1 23.7.1 20.1.5 23.5 4 28.3 5.8 8 25.4 8.4 37 .8 2.1-1.4 4.1-2.6 4.4-2.6.3 0 .5 1.8.5 4s.3 4 .8 4l12.7-2c6.6-1.1 13.5-2 15.3-2 1.7 0 3.2-.2 3.2-.5 0-.2-1-2.1-2.5-4.1l-2.5-3.7V34.8l-2.2.5a786.5 786.5 0 0 0-31.6 7.3c-.2.2 1.1 1.6 3 3.2l3.3 3 .3 23.7c.3 26 .5 25.3-5.9 28.6-5 2.5-7.5 2.4-10.4-.6l-2.5-2.4V66.5c0-29.4 0-31.5-1.7-31.4-1 0-5.8 1.1-10.8 2.4zm-338 1c-7 1.9-14 3.4-15.2 3.4-2.9.1-2.9.4.6 3.9 3.8 3.8 4.3 8.1 4 35.5l-.4 21.9-2.8 2.4-2.8 2.4h37.1l-2-2c-1.9-1.9-2-3.3-2-36.5 0-32.2 0-34.5-1.7-34.4-1 .1-7.6 1.6-14.8 3.4zm276.4 1.1c4.1 5.2 4.6 8.9 4.6 31.9 0 23.8-.8 28.9-5 33.1a8.5 8.5 0 0 1-12 0c-4.2-4.2-5-9.4-5-32.6 0-23.2.8-28.4 5-32.6 3.4-3.4 9.6-3.3 12.4.2zm-13.3-4.5a40.7 40.7 0 0 0-30.3 21.7c-2.5 5-2.8 6.8-2.8 15.2 0 8.5.3 10.1 2.8 15a40.3 40.3 0 0 0 37 22c13 0 22.8-4.2 31.2-13.1 7.1-7.6 9-12.5 9-23.9 0-8.2-.4-10.3-2.7-15.2a41.7 41.7 0 0 0-44.2-21.7zm-71.7-.1c-4.5.8-11.3 3.9-17.6 8.1l-3.3 2.1V40c0-4.9 0-5.2-2.2-4.7l-17 3.9a86.5 86.5 0 0 0-14.8 4c0 .4 1 1 2 1.3 4.5 1.4 5 4.7 5 32.5v26.1l-2.5 2.4-2.4 2.5h36l-2-2.6c-2-2.6-2-3.9-2-29.4 0-26.4 0-26.7 2.2-28.7 5.1-4.7 11.3-5.7 14.6-2.4 3 2.9 3.3 8 3 34.7-.4 22.1-.6 24.4-2.3 26.3l-1.9 2.1h36.6l-2.6-2-2.5-2-.4-27.3c-.4-29.1-.8-31.9-6-37.4-3.5-3.7-12-5.6-19.9-4.3zm-97 3c1 .5 2.7 2.9 3.7 5.2 1.5 3.6 2 7.8 2.2 25.5.4 24.5-.5 31.1-4.8 35.5-4.8 4.8-11 3.3-14.8-3.5-1.5-2.8-1.7-6.3-1.7-28.7 0-24.4.1-25.7 2.2-29.7 1.2-2.2 2.8-4.3 3.5-4.6 2.2-.9 8-.7 9.7.3zm-12.2-2.9c-22.5 3.3-38 25.3-32.2 45.5a38.4 38.4 0 0 0 36.1 28.2c24.5 1.5 43.8-14.7 43.7-36.8 0-23.8-21.8-40.7-47.6-36.9zm-53 .4c-6.6 2.3-9.7 6.5-9.7 13.2 0 7.8 6 13.3 14.4 13.3 5.6 0 11-4.2 12.7-10.1 3.1-10.2-7.3-20-17.4-16.4zm-89-28.2c3.3 4 4.3 8.9 4.3 22.2 0 13.8-1 18.3-4.9 22.7-2.4 2.7-3.6 3.2-9 3.6l-6 .4V3.8l6.5.4c5.7.4 7 .8 9 3.1zm523.3 27.8c-5.6.8-10.2 2.8-16 6.7l-4.5 3.1-.3-4.9c-.2-2.8-.7-5-1.2-5s-7.3 1.6-15 3.5a207 207 0 0 1-16.2 3.5c-2.5 0-2.3.6 1.5 3.9l3.2 2.9.3 27.1.3 27.1-2.5 2.5-2.5 2.5h18.2a86 86 0 0 0 17.1-.8c-3-2-3.4-5.5-3.4-31.9V48.4l4.2-2.7c5-3.2 10-3.5 12.8-.7 2 1.9 2 3.3 2 30.5s0 28.6-2 30.5l-2 2 18.8-.1c14 0 18.1-.3 16.5-1.1a8 8 0 0 1-3-2.7c-.4-.9-1-14.2-1.3-29.7l-.5-28.1-2.7-4c-4-6.2-11.8-8.8-21.8-7.2z"/><path fill="#3460fd" d="M633.8 1.2c-4.9 1.4-10 5.5-11.6 9.4a23.5 23.5 0 0 0 0 15.7c2 4.6 8 9.5 13.1 10.8l4.5 1.1V86h5l.2-39.8.3-39.7h13l.3 39.7.2 39.8h5V0l-13.2.1c-7.3 0-14.9.5-16.8 1.1z"/><use xlink:href="#reuse-0"/><use xlink:href="#reuse-0"/><use xlink:href="#reuse-0"/></svg>
